<?xml version="1.0" encoding="utf-8"?><svg viewBox="0 0 24 24" xmlns="http://www.w3.org/2000/svg" xmlns:xlink="http://www.w3.org/1999/xlink"><style>:root>svg{display:none}:root>svg:target{display:block}</style><svg viewBox="0 0 24 24" id="ic_day" xmlns="http://www.w3.org/2000/svg"><path fill="none" d="M0 0h24v24H0z"/><path d="M12 7c-2.76 0-5 2.24-5 5s2.24 5 5 5 5-2.24 5-5-2.24-5-5-5zM2 13h2c.55 0 1-.45 1-1s-.45-1-1-1H2c-.55 0-1 .45-1 1s.45 1 1 1zm18 0h2c.55 0 1-.45 1-1s-.45-1-1-1h-2c-.55 0-1 .45-1 1s.45 1 1 1zM11 2v2c0 .55.45 1 1 1s1-.45 1-1V2c0-.55-.45-1-1-1s-1 .45-1 1zm0 18v2c0 .55.45 1 1 1s1-.45 1-1v-2c0-.55-.45-1-1-1s-1 .45-1 1zM5.99 4.58a.996.996 0 00-1.41 0 .996.996 0 000 1.41l1.06 1.06c.39.39 1.03.39 1.41 0s.39-1.03 0-1.41L5.99 4.58zm12.37 12.37a.996.996 0 00-1.41 0 .996.996 0 000 1.41l1.06 1.06c.39.39 1.03.39 1.41 0a.996.996 0 000-1.41l-1.06-1.06zm1.06-10.96a.996.996 0 000-1.41.996.996 0 00-1.41 0l-1.06 1.06c-.39.39-.39 1.03 0 1.41s1.03.39 1.41 0l1.06-1.06zM7.05 18.36a.996.996 0 000-1.41.996.996 0 00-1.41 0l-1.06 1.06c-.39.39-.39 1.03 0 1.41s1.03.39 1.41 0l1.06-1.06z"/></svg><svg viewBox="0 0 24 24" id="ic_expand" xmlns="http://www.w3.org/2000/svg"><path d="M24 24H0V0h24v24z" fill="none" opacity=".87"/><path d="M16.59 8.59L12 13.17 7.41 8.59 6 10l6 6 6-6-1.41-1.41z"/></svg><svg viewBox="0 0 24 24" id="ic_night" xmlns="http://www.w3.org/2000/svg"><g fill="none"><path d="M0 0h24v24H0z"/><path d="M0 0h24v24H0z"/></g><path d="M11.65 3.46c.27-.71-.36-1.45-1.12-1.34-5.52.8-9.47 6.07-8.34 11.88.78 4.02 4.09 7.21 8.14 7.87 3.74.61 7.16-.87 9.32-3.44.48-.57.19-1.48-.55-1.62-6.02-1.15-9.68-7.54-7.45-13.35z"/></svg><svg viewBox="0 0 24 24" id="ic_person" xmlns="http://www.w3.org/2000/svg"><path d="M0 0h24v24H0V0z" fill="none"/><path d="M12 2C6.48 2 2 6.48 2 12s4.48 10 10 10 10-4.48 10-10S17.52 2 12 2zM7.07 18.28c.43-.9 3.05-1.78 4.93-1.78s4.51.88 4.93 1.78C15.57 19.36 13.86 20 12 20s-3.57-.64-4.93-1.72zm11.29-1.45c-1.43-1.74-4.9-2.33-6.36-2.33s-4.93.59-6.36 2.33A7.95 7.95 0 014 12c0-4.41 3.59-8 8-8s8 3.59 8 8c0 1.82-.62 3.49-1.64 4.83zM12 6c-1.94 0-3.5 1.56-3.5 3.5S10.06 13 12 13s3.5-1.56 3.5-3.5S13.94 6 12 6zm0 5c-.83 0-1.5-.67-1.5-1.5S11.17 8 12 8s1.5.67 1.5 1.5S12.83 11 12 11z"/></svg><svg viewBox="0 0 24 24" id="ic_place" xmlns="http://www.w3.org/2000/svg"><path fill="none" d="M0 0h24v24H0z"/><path d="M12 2c-4.2 0-8 3.22-8 8.2 0 3.18 2.45 6.92 7.34 11.23.38.33.95.33 1.33 0C17.55 17.12 20 13.38 20 10.2 20 5.22 16.2 2 12 2zm0 10c-1.1 0-2-.9-2-2s.9-2 2-2 2 .9 2 2-.9 2-2 2z"/></svg></svg>